<svg xmlns="http://www.w3.org/2000/svg" viewBox="0 0 592.14 578.08"><defs><style>.cls-1,.cls-3,.cls-5,.cls-6{fill:none;}.cls-1,.cls-3,.cls-4,.cls-5,.cls-6{stroke:#d5e4f5;stroke-miterlimit:10;}.cls-1{stroke-width:2.83px;}.cls-2{fill:#d5e4f5;}.cls-3,.cls-4{stroke-width:3.69px;}.cls-4,.cls-7{fill:none;}.cls-5{stroke-width:5.67px;}.cls-6{stroke-width:1.98px;}</style></defs><title>Ресурс 2</title><g id="Слой_2" data-name="Слой 2"><g id="Layer_1" data-name="Layer 1"><path class="cls-1" d="M144.19,536.23c-35.39-28.48-63-66.46-87.17-107.89-5.18-8.63-8.64-17.26-12.09-25.89-22.44-57-24.17-122.56,1.59-180.39"/><path class="cls-2" d="M70.84,236.21c-6,33.83-37,28.58-37,28.58h0s2.73-31.48,37-28.58Z"/><path class="cls-2" d="M59.8,279.63c.68,34.36-30.71,35.23-30.71,35.23h0s-3.44-31.4,30.71-35.23Z"/><path class="cls-2" d="M63.22,323.32c2.43,34.29-28.88,36.74-28.88,36.74h0s-5-31.19,28.88-36.74Z"/><path class="cls-2" d="M70.89,362.53c3.63,34.17-27.57,37.73-27.57,37.73h0s-6.12-31,27.57-37.73Z"/><path class="cls-2" d="M8.53,226.6c-5,34,26,38.81,26,38.81h0s7.36-30.72-26-38.81Z"/><path class="cls-2" d="M.2,279.36c-3,34.24,28.3,37.19,28.3,37.19h0S34,285.45.2,279.36Z"/><path class="cls-2" d="M.27,326.16c1.63,34.33,33,33.08,33,33.08h0s1.32-31.56-33-33.08Z"/><path class="cls-2" d="M6.6,375.15c8.29,33.36,38.82,26,38.82,26h0S40.57,370,6.6,375.15Z"/><path class="cls-2" d="M82.1,399.52c12.48,32-16.69,43.65-16.69,43.65h0s-14-28.29,16.69-43.65Z"/><path class="cls-2" d="M23.39,428.59c16.76,30,44.29,14.91,44.29,14.91h0s-12.89-28.85-44.29-14.91Z"/><path class="cls-2" d="M112.31,444.4c12.48,32-16.69,43.65-16.69,43.65h0s-14.05-28.29,16.69-43.65Z"/><path class="cls-2" d="M53.6,473.47c16.76,30,44.29,14.91,44.29,14.91h0S85,459.53,53.6,473.47Z"/><path class="cls-1" d="M448,536.23c27.78-22.42,51.68-51.1,71-81s34.22-63.26,41-98.45a232.87,232.87,0,0,0-15.56-137.56"/><path class="cls-2" d="M521.3,236.21c6,33.83,37,28.58,37,28.58h0s-2.73-31.48-37-28.58Z"/><path class="cls-2" d="M532.34,279.63c-.69,34.36,30.71,35.23,30.71,35.23h0s3.44-31.4-30.71-35.23Z"/><path class="cls-2" d="M528.91,323.32c-2.42,34.29,28.89,36.74,28.89,36.74h0s5-31.19-28.89-36.74Z"/><path class="cls-2" d="M521.25,362.53c-3.63,34.17,27.57,37.73,27.57,37.73h0s6.12-31-27.57-37.73Z"/><path class="cls-2" d="M583.61,226.6c5,34-26,38.81-26,38.81h0s-7.37-30.72,26-38.81Z"/><path class="cls-2" d="M591.94,279.36c3,34.24-28.3,37.19-28.3,37.19h0s-5.52-31.1,28.3-37.19Z"/><path class="cls-2" d="M591.86,326.16c-1.63,34.33-33,33.08-33,33.08h0s-1.32-31.56,33-33.08Z"/><path class="cls-2" d="M585.53,375.15c-8.29,33.36-38.81,26-38.81,26h0s4.85-31.22,38.81-26Z"/><path class="cls-2" d="M510,399.52c-12.47,32,16.7,43.65,16.7,43.65h0s14-28.29-16.7-43.65Z"/><path class="cls-2" d="M568.75,428.59c-16.76,30-44.29,14.91-44.29,14.91h0s12.88-28.85,44.29-14.91Z"/><path class="cls-2" d="M479.82,444.4c-12.47,32,16.7,43.65,16.7,43.65h0s14-28.29-16.7-43.65Z"/><path class="cls-2" d="M538.54,473.47c-16.76,30-44.29,14.91-44.29,14.91h0s12.88-28.85,44.29-14.91Z"/><path class="cls-2" d="M70.78,159.67,64.56,168,24.82,138.2,46,109.92l7,5.26-15,20,9,6.72,13.11-17.49,7,5.27L54.06,147.15Z"/><path class="cls-2" d="M60.11,114l6.24-6.66,4.54,4.26.09-.1c-1.35-4-2.45-8.09,1.57-12.38a15.06,15.06,0,0,1,1.38-1.26l7.16,6.72a18,18,0,0,0-2,1.92c-5.15,5.5-2.67,9.72.3,12.51l14.07,13.21-6.53,6.95Z"/><path class="cls-2" d="M70,83.25l7.06-6.42,6,6.65L76.06,89.9Zm9.72,10.69,7.06-6.42,24.75,27.22-7.06,6.42Z"/><path class="cls-2" d="M114,92.67c1.18,1.61,5.87,6.58,12.16,2a6.37,6.37,0,0,0,2.48-7.14l8-5.86c2.42,3.29,2.95,12.77-6.3,19.57-7.91,5.82-17.53,6-26.06-5.56-5.94-8.07-7.18-18.4,2.73-25.7,10.53-7.74,19.33-3.13,27.36,7.78Zm8.54-14.18c-3.85-5.24-8.41-4.2-11-2.32s-4.91,5.93-1.06,11.17Z"/><path class="cls-2" d="M176.89,72.05l-8.25,4.37-2.17-4.09-.06.19c-.13,4.77-3.23,8.06-6.77,9.94-9.65,5.12-18.22-1.29-23-10.32-6-11.36-2.6-20.23,4.54-24a11.82,11.82,0,0,1,12.1.07l.19.06-8.27-15.57,8.42-4.48ZM158.19,74c6.17-3.28,3.9-10.21,1.95-13.87-2.43-4.58-7-8.65-12.39-5.79s-4.57,8.92-2.14,13.5C147.55,71.5,152,77.27,158.19,74Z"/><path class="cls-2" d="M170.76,35.06l8.54-3.24,2.2,5.81.13,0c.55-4.21,1.35-8.35,6.84-10.44a16,16,0,0,1,1.79-.53l3.49,9.18a17.2,17.2,0,0,0-2.64.85c-7,2.67-6.67,7.56-5.22,11.37l6.85,18-8.92,3.38Z"/><path class="cls-2" d="M193.23,11.75l9.16-2.66,2.51,8.63-9.17,2.66Zm4,13.88L206.42,23l10.25,35.33L207.51,61Z"/><path class="cls-2" d="M241.53,28.7c-1.43-3.68-3.36-5.44-7.44-4.7-6.26,1.12-6,7.82-5.21,12.45s2.62,11,9.22,9.86a6.62,6.62,0,0,0,5.26-7.47l9.79-1.76c.66,3.67-.89,15-13.61,17.26-11,2-18.25-3.81-20.46-16.13s3.29-20.4,13.56-22.24c6.67-1.2,15.85.24,18.69,11Z"/><path class="cls-2" d="M257.57.36,267.11,0l.65,17.48h.14c1.2-3.09,5.24-5.93,10.49-6.13,7.12-.27,12.87,3.74,13.17,11.82l1,25.56-9.54.36-.83-22.45c-.1-2.7-.41-7.25-6.63-7-4.28.16-7.56,3.19-7.35,8.78L269,49.6l-9.53.36Z"/><path class="cls-2" d="M299.47,25.45,318.7,27l-.71,9-19.23-1.52Z"/><path class="cls-2" d="M365.42,24.4l-9.75-2c1.08-5.21-2.81-8.28-8.36-9.42-4.07-.84-9-.24-9.9,4.16-.8,3.86,2.19,5.12,4.26,6l11.25,5.36c4.76,2.26,12,6,9.95,16-1.6,7.79-8.54,14.33-23.5,11.24-10.43-2.16-18.76-8.68-16.36-20.26l9.75,2c-1.21,5.82,3.6,8.86,8.89,10,4.19.86,10.27.85,11.31-4.16.79-3.86-3-5.7-7.58-7.78l-5-2.3c-7.41-3.44-14.7-6.78-12.51-17.34,2.27-11,12.26-13.22,21.95-11.21C356.29,6.06,368.18,11.06,365.42,24.4Z"/><path class="cls-2" d="M393.54,46c.65-3.9-.12-6.4-4-7.85-6-2.23-9.19,3.65-10.84,8S375.31,57,381.6,59.38a6.62,6.62,0,0,0,8.34-3.74l9.32,3.48c-1.3,3.5-8.41,12.43-20.52,7.91-10.49-3.93-13.75-12.6-9.36-24.32s13.23-15.87,23-12.21c6.34,2.37,13.5,8.29,10.47,19Z"/><path class="cls-2" d="M421.87,29.83l8.37,4.57-8.38,15.35.13.07c2.61-2,7.54-2.42,12.15.1,6.25,3.41,9.15,9.79,5.27,16.9L427.16,89.27l-8.38-4.57L429.55,65c1.29-2.37,3.35-6.44-2.11-9.42-3.76-2.06-8.13-1.13-10.81,3.78L406.46,78l-8.37-4.57Z"/><path class="cls-2" d="M454.78,64l7.81,5.47L441.5,99.56l-7.81-5.47Zm8.28-11.84,7.82,5.47L465.73,65l-7.82-5.48Z"/><path class="cls-2" d="M456,110.9l-7.42-6,31.2-38.6,7.42,6Z"/><path class="cls-2" d="M469.67,123.18l-7-6.5,33.81-36.36,7,6.5Z"/><path class="cls-2" d="M491.85,123.7c-1.51,1.31-6.07,6.4-.93,12.28a6.36,6.36,0,0,0,7.32,1.87l6.51,7.44c-3.07,2.69-12.47,4-20-4.63-6.46-7.39-7.49-17,3.34-26.43,7.55-6.6,17.74-8.71,25.84.56,8.6,9.84,4.75,19-5.46,27.91ZM506.69,131c4.9-4.28,3.48-8.74,1.39-11.13s-6.32-4.4-11.22-.12Z"/><path class="cls-2" d="M529.85,136.31l5.16,7.53-5.13,3.51.08.12c4.21-.46,8.43-.67,11.75,4.18a18.48,18.48,0,0,1,.94,1.62l-8.1,5.55a17.44,17.44,0,0,0-1.45-2.36c-4.26-6.22-8.92-4.7-12.28-2.39L504.91,165l-5.4-7.87Z"/><path class="cls-2" d="M220.83,512.14a35.15,35.15,0,0,1,5.1,2.56,20.92,20.92,0,0,1,4.82,4.4,13.6,13.6,0,0,1,2.8,6.34,16.84,16.84,0,0,1-1.21,8.44l-9-3.49q1.38-3.78-.52-6.43a12.74,12.74,0,0,0-5.85-4.12,17.57,17.57,0,0,0-2.89-.83,7.24,7.24,0,0,0-2.93,0,5.18,5.18,0,0,0-2.47,1,4.49,4.49,0,0,0-1.87,2.39q-.94,2.6.38,4.17a8.76,8.76,0,0,0,2.68,2.41l9.84,7a25.53,25.53,0,0,1,3.38,2.58,14.74,14.74,0,0,1,3,3.62,10.66,10.66,0,0,1,1.58,4.78,16.15,16.15,0,0,1-1.17,6.36,18.23,18.23,0,0,1-3,5,12.64,12.64,0,0,1-5.05,3.43q-6.12,2.84-16.42-1a23,23,0,0,1-11.23-8.52q-4-5.7-1-14l9,3.49c-1,2.72-.73,5,.82,6.94a13.87,13.87,0,0,0,6,4.24,15.67,15.67,0,0,0,6.61,1.15,6.24,6.24,0,0,0,3-.89,5.48,5.48,0,0,0,1.92-2.59,5.14,5.14,0,0,0,.38-2.61,5,5,0,0,0-1.2-2.16,23.13,23.13,0,0,0-5.08-4.08l-4.36-3c-.78-.59-1.54-1.17-2.27-1.75s-1.58-1.13-2.34-1.74a18.72,18.72,0,0,1-2-1.91c-.61-.66-1.2-1.33-1.74-2a10.76,10.76,0,0,1-1.73-5.05,12.88,12.88,0,0,1,1-6.52q3.12-7.66,9.71-9.06A23.57,23.57,0,0,1,220.83,512.14Z"/><path class="cls-2" d="M259.8,550.94a8.09,8.09,0,0,0-1-4.79,6.07,6.07,0,0,0-4.08-2.25,5.84,5.84,0,0,0-3.84.4,7.71,7.71,0,0,0-2.65,2.31,20,20,0,0,0-2.61,7.09,26.07,26.07,0,0,0-.44,3.73,16.42,16.42,0,0,0,.2,3.81,6.33,6.33,0,0,0,1.61,3.12,5.88,5.88,0,0,0,3.5,1.8,5.26,5.26,0,0,0,2.91-.2,6.67,6.67,0,0,0,2.26-1.22,7.13,7.13,0,0,0,2.21-3.69l9.48,1.8a14.55,14.55,0,0,1-1.35,3.59,17.59,17.59,0,0,1-3.42,4.29,16,16,0,0,1-5.6,3.16,16.51,16.51,0,0,1-8,.3q-16.31-3.32-12.82-22.31,4-18.86,20.11-16a25.28,25.28,0,0,1,5,1.51,15.75,15.75,0,0,1,4.45,3.25,11.79,11.79,0,0,1,3,5,16.73,16.73,0,0,1,.54,7.16Z"/><path class="cls-2" d="M277.45,527.74l9.24.21-.39,17.48h.13a9.57,9.57,0,0,1,3.91-4,13,13,0,0,1,6.58-1.51,12.75,12.75,0,0,1,8.72,3.24q3.41,3.18,3.32,9.33l-.58,25.58-9.24-.21.51-22.46c0-.71,0-1.49,0-2.32a6.94,6.94,0,0,0-.67-2.38,3.8,3.8,0,0,0-1.76-1.9,7.48,7.48,0,0,0-3.54-.79,7.17,7.17,0,0,0-5.29,2q-2.17,2.07-2.33,6.35l-.49,21.21-9.24-.21Z"/><path class="cls-2" d="M319.11,559.35q-1.35-8.62,2.64-14.61t12.34-7.49q8.61-1.28,14.13,3.32t6.9,13.1q1.28,8.54-2.55,14.55t-12.43,7.55q-8.42,1.2-14.05-3.39T319.11,559.35Zm9.53-1.5a15.53,15.53,0,0,0,3.11,7.36q2.46,3.16,7.12,2.5a8.47,8.47,0,0,0,4-1.63,7.7,7.7,0,0,0,2.2-2.9,11.13,11.13,0,0,0,.82-3.85,25.82,25.82,0,0,0-.32-4.15,16.92,16.92,0,0,0-2.94-7.49,7.87,7.87,0,0,0-3-2.12,8.8,8.8,0,0,0-4.31-.25c-3.1.54-5.11,2-6,4.53A15.31,15.31,0,0,0,328.64,557.85Z"/><path class="cls-2" d="M362.94,551.83q-2.88-8.22,0-14.84t10.79-9.59q8.24-2.82,14.5.71t9.15,11.64q2.79,8.18.12,14.77t-10.86,9.67q-8.07,2.7-14.43-.79T362.94,551.83Zm9.11-3.19a15.48,15.48,0,0,0,4.39,6.68c2,1.78,4.47,2.17,7.46,1.17a8.47,8.47,0,0,0,3.66-2.32,7.78,7.78,0,0,0,1.63-3.26,10.91,10.91,0,0,0,.11-3.93,25.71,25.71,0,0,0-1.06-4,17,17,0,0,0-4.24-6.84,8.1,8.1,0,0,0-3.32-1.55,8.82,8.82,0,0,0-4.29.54q-4.42,1.62-5.1,5.54A15.35,15.35,0,0,0,372.05,548.64Z"/><path class="cls-2" d="M422.62,547.34l-8.24,4.18-22.46-44.25,8.24-4.19Z"/><path class="cls-3" d="M361,273.45s1.22,5.9,6.27,5.9,6.48-5.33,6.48-5.33l45-11.2-.1-63.64v-.27l-52,11.83-51-11.61v64.5l44.94,10.66s1.42,5.06,6.48,5.06,6.27-5.6,6.27-5.6"/><path class="cls-4" d="M414.63,193.69c-12.51-1.3-23.93-1.27-46.55,11.48h-1c-21-11.86-36-12.55-47.94-11.31l.79,0,.66,64.32h-.05c26.24-.69,47.21,15.73,47.21,15.73l-.19-68.39v0l.21,68.37s20.23-16.2,46.47-15.51"/><line class="cls-4" x1="414.4" y1="193.33" x2="414.4" y2="258.62"/><polygon class="cls-4" points="376.2 198.86 377.04 252.58 383.01 244.88 389.93 250.76 388.71 193.81 376.2 198.86"/><path class="cls-2" d="M221.3,200.92H183.78v24.81h33.35v5.63H183.78v33h-6.49v-69h44Z"/><path class="cls-2" d="M271.22,215.17c-.58-10.47-8-15.71-19.2-15.71-10.85,0-17.25,4.75-17.25,13,0,9,7.66,10.67,18.61,13.09,15.22,3.3,26.37,6.2,26.37,20,0,14.93-13.19,20.26-26,20.26-17.16,0-27.53-8.92-27.53-23.65v-.58h6.3c0,12.79,8.53,18.9,21.71,18.9,11.93,0,19.2-5.33,19.2-14.25,0-9.31-7.27-11.44-23.36-15.22-10.57-2.42-21.62-4.85-21.62-18.13,0-11.63,9.21-18.9,24-18.9,14.54,0,24.43,7,25.11,21.23Z"/><path class="cls-2" d="M381.11,349.18c-.58-10.47-7.95-15.71-19.2-15.71-10.85,0-17.25,4.75-17.25,13,0,9,7.66,10.67,18.61,13.09,15.22,3.3,26.37,6.2,26.37,20,0,14.93-13.19,20.26-26,20.26-17.16,0-27.53-8.92-27.53-23.65v-.59h6.3c0,12.8,8.53,18.91,21.71,18.91,11.93,0,19.2-5.33,19.2-14.25,0-9.31-7.27-11.44-23.37-15.22-10.56-2.43-21.61-4.85-21.61-18.13,0-11.63,9.21-18.9,24-18.9,14.54,0,24.43,7,25.11,21.23Z"/><path class="cls-5" d="M434,161.78v213.4s-38.81,72.63-138.82,95.17h0c-100-22.54-138.07-95.17-138.07-95.17l0-213.32Z"/><line class="cls-5" x1="294.98" y1="162.03" x2="295.19" y2="471.12"/><path class="cls-5" d="M157.4,297.63H435.05"/><path class="cls-6" d="M214.27,364.71a7.68,7.68,0,1,1-7.67-7.36A7.52,7.52,0,0,1,214.27,364.71Z"/><path class="cls-6" d="M210.88,364.62a4.22,4.22,0,1,1-4.22-4.05A4.14,4.14,0,0,1,210.88,364.62Z"/><path class="cls-6" d="M251.62,365a7.68,7.68,0,1,1-7.67-7.36A7.52,7.52,0,0,1,251.62,365Z"/><path class="cls-6" d="M248.18,364.89a4.23,4.23,0,1,1-4.22-4.06A4.14,4.14,0,0,1,248.18,364.89Z"/><path class="cls-5" d="M260.1,460.58c-.21-33.15-.21-98.54,0-132h0l.17,43.33s-12.29,28.13-34,41.42h-.17c-21.11-13.29-34-41.42-34-41.42l-.22-26.29,24.23.21,7,21.65,3.11,8.93,9.66-30.48,24.23-.21V328.19s-.11-14.19,0-14.36-14.17,14.57-14.17,14.57l-.94.06c-15.31,0-20.79.13-36.1.06H206s-14.29-14.74-14.18-14.57,0,14.6,0,14.6h0v86.8"/><line class="cls-5" x1="261.29" y1="374.47" x2="297.03" y2="374.47"/><line class="cls-5" x1="260.68" y1="389.6" x2="294.61" y2="389.6"/><line class="cls-5" x1="260.68" y1="404.73" x2="294.61" y2="404.73"/><path class="cls-5" d="M295.21,418s-1.81,27.1-59.17,31.76"/><path class="cls-7" d="M365.9,274.26l1.73.92,3.31-1.8s-.46,3.11-1.48,3.63-5.18.37-4.5-1.25S365.9,274.26,365.9,274.26Z"/></g></g></svg>