<svg xmlns="http://www.w3.org/2000/svg" viewBox="0 0 144.88 141.44"><defs><style>.cls-1{fill:none;}.cls-1,.cls-3{stroke:#d5e4f5;stroke-miterlimit:10;stroke-width:1.42px;}.cls-2{fill:#d5e4f5;}.cls-3{fill:none;}</style></defs><title>Ресурс 1</title><g id="Слой_2" data-name="Слой 2"><g id="Layer_1" data-name="Layer 1"><path class="cls-1" d="M35.28,131.2c-8.66-7-15.42-16.26-21.33-26.4a42.84,42.84,0,0,1-3-6.33c-5.49-13.94-5.91-30,.39-44.14"/><path class="cls-2" d="M17.33,57.79c-1.47,8.28-9,7-9,7h0s.67-7.7,9-7Z"/><path class="cls-2" d="M14.63,68.42C14.8,76.83,7.12,77,7.12,77h0s-.84-7.68,7.51-8.62Z"/><path class="cls-2" d="M15.47,79.11c.59,8.39-7.07,9-7.07,9h0s-1.23-7.63,7.07-9Z"/><path class="cls-2" d="M17.35,88.7c.88,8.36-6.75,9.23-6.75,9.23h0s-1.5-7.58,6.75-9.23Z"/><path class="cls-2" d="M2.09,55.44c-1.23,8.32,6.37,9.5,6.37,9.5h0s1.8-7.52-6.37-9.5Z"/><path class="cls-2" d="M.05,68.35C-.68,76.73,7,77.45,7,77.45H7s1.35-7.61-6.92-9.1Z"/><path class="cls-2" d="M.07,79.8c.4,8.4,8.07,8.1,8.07,8.1h0s.33-7.73-8.07-8.1Z"/><path class="cls-2" d="M1.62,91.79c2,8.16,9.49,6.37,9.49,6.37h0s-1.18-7.64-9.49-6.37Z"/><path class="cls-2" d="M20.09,97.75c3.05,7.84-4.09,10.68-4.09,10.68h0s-3.43-6.92,4.09-10.68Z"/><path class="cls-2" d="M5.72,104.87c4.1,7.34,10.84,3.64,10.84,3.64h0s-3.15-7.06-10.84-3.64Z"/><path class="cls-2" d="M27.48,108.73c3.05,7.84-4.08,10.68-4.08,10.68h0s-3.44-6.92,4.08-10.68Z"/><path class="cls-2" d="M13.11,115.85c4.11,7.34,10.84,3.64,10.84,3.64h0s-3.15-7-10.84-3.64Z"/><path class="cls-1" d="M109.6,131.2A83.89,83.89,0,0,0,127,111.38a68.83,68.83,0,0,0,10-24.09,56.94,56.94,0,0,0-3.8-33.66"/><path class="cls-2" d="M127.55,57.79c1.47,8.28,9,7,9,7h0s-.67-7.7-9-7Z"/><path class="cls-2" d="M130.25,68.42c-.17,8.41,7.51,8.62,7.51,8.62h0s.85-7.68-7.51-8.62Z"/><path class="cls-2" d="M129.41,79.11c-.59,8.39,7.07,9,7.07,9h0s1.23-7.63-7.07-9Z"/><path class="cls-2" d="M127.54,88.7c-.89,8.36,6.74,9.23,6.74,9.23h0s1.5-7.58-6.74-9.23Z"/><path class="cls-2" d="M142.79,55.44c1.23,8.32-6.36,9.5-6.36,9.5h0s-1.81-7.52,6.36-9.5Z"/><path class="cls-2" d="M144.83,68.35c.73,8.38-6.92,9.1-6.92,9.1h0s-1.35-7.61,6.92-9.1Z"/><path class="cls-2" d="M144.81,79.8c-.39,8.4-8.07,8.1-8.07,8.1h0s-.32-7.73,8.07-8.1Z"/><path class="cls-2" d="M143.27,91.79c-2,8.16-9.5,6.37-9.5,6.37h0s1.19-7.64,9.5-6.37Z"/><path class="cls-2" d="M124.79,97.75c-3.05,7.84,4.09,10.68,4.09,10.68h0s3.43-6.92-4.09-10.68Z"/><path class="cls-2" d="M139.16,104.87c-4.1,7.34-10.84,3.64-10.84,3.64h0s3.16-7.06,10.84-3.64Z"/><path class="cls-2" d="M117.4,108.73c-3.05,7.84,4.09,10.68,4.09,10.68h0s3.43-6.92-4.09-10.68Z"/><path class="cls-2" d="M131.77,115.85c-4.1,7.34-10.84,3.64-10.84,3.64h0s3.15-7,10.84-3.64Z"/><path class="cls-2" d="M17.32,39.07l-1.52,2L6.07,33.81l5.19-6.92L13,28.18,9.31,33.07l2.2,1.64,3.2-4.27,1.72,1.28L13.23,36Z"/><path class="cls-2" d="M14.71,27.9l1.53-1.63,1.11,1,0,0a2.64,2.64,0,0,1,.38-3,3.39,3.39,0,0,1,.34-.31l1.75,1.64a5.38,5.38,0,0,0-.49.47,1.91,1.91,0,0,0,.08,3.06l3.44,3.23-1.6,1.71Z"/><path class="cls-2" d="M17.13,20.37l1.73-1.57,1.48,1.63L18.61,22ZM19.51,23l1.73-1.57,6.05,6.66-1.72,1.57Z"/><path class="cls-2" d="M27.88,22.67a2,2,0,0,0,3,.48,1.56,1.56,0,0,0,.6-1.75L33.41,20c.59.81.72,3.12-1.54,4.79-1.94,1.42-4.29,1.47-6.38-1.36-1.45-2-1.75-4.51.67-6.29,2.58-1.89,4.73-.77,6.7,1.9ZM30,19.2A1.84,1.84,0,1,0,27,21.37Z"/><path class="cls-2" d="M43.28,17.63l-2,1.07-.53-1v0a2.86,2.86,0,0,1-1.66,2.44c-2.36,1.25-4.46-.32-5.63-2.53-1.48-2.78-.64-4.95,1.11-5.88a2.91,2.91,0,0,1,3,0h0l-2-3.8,2.06-1.1Zm-4.57.47c1.51-.8.95-2.49.47-3.39-.59-1.12-1.71-2.12-3-1.42S35,15.48,35.63,16.6C36.1,17.49,37.2,18.9,38.71,18.1Z"/><path class="cls-2" d="M41.78,8.58l2.09-.8.54,1.43h0a2.65,2.65,0,0,1,1.67-2.56l.44-.13.86,2.25a4.09,4.09,0,0,0-.65.21,1.92,1.92,0,0,0-1.28,2.78l1.68,4.41L45,17Z"/><path class="cls-2" d="M47.28,2.88l2.24-.66.61,2.11L47.89,5Zm1,3.39,2.25-.65L53,14.26l-2.25.65Z"/><path class="cls-2" d="M59.1,7c-.35-.9-.83-1.33-1.82-1.15C55.74,6.15,55.8,7.79,56,8.92s.64,2.7,2.26,2.41A1.61,1.61,0,0,0,59.54,9.5l2.4-.43a3.85,3.85,0,0,1-3.33,4.23c-2.7.48-4.46-.94-5-4s.81-5,3.32-5.44c1.63-.3,3.88.06,4.58,2.68Z"/><path class="cls-2" d="M63,.09,65.35,0l.17,4.28h0a2.82,2.82,0,0,1,2.57-1.51,2.87,2.87,0,0,1,3.22,2.9l.23,6.25L69.24,12,69,6.51c0-.65-.1-1.77-1.62-1.71A1.86,1.86,0,0,0,65.61,7l.2,5.19-2.33.08Z"/><path class="cls-2" d="M73.27,6.23,78,6.6l-.17,2.19L73.1,8.42Z"/><path class="cls-2" d="M89.41,6,87,5.48c.27-1.28-.68-2-2-2.31-1-.21-2.2-.06-2.42,1s.53,1.25,1,1.48L86.35,7c1.17.55,2.94,1.47,2.44,3.92-.4,1.91-2.09,3.51-5.75,2.75-2.56-.52-4.59-2.12-4-5l2.39.49c-.3,1.42.88,2.17,2.17,2.44,1,.21,2.52.2,2.77-1,.2-.95-.73-1.4-1.85-1.91l-1.22-.56C81.48,7.3,79.7,6.48,80.23,3.9s3-3.23,5.37-2.74C87.18,1.48,90.09,2.7,89.41,6Z"/><path class="cls-2" d="M96.29,11.25c.16-.95,0-1.56-1-1.92-1.46-.54-2.25.89-2.65,2s-.83,2.65.71,3.23a1.62,1.62,0,0,0,2-.92l2.28.86a3.84,3.84,0,0,1-5,1.93c-2.57-1-3.36-3.08-2.29-5.95s3.24-3.88,5.63-3c1.55.58,3.3,2,2.56,4.64Z"/><path class="cls-2" d="M103.22,7.3l2,1.12-2,3.75,0,0a2.83,2.83,0,0,1,3,0,2.87,2.87,0,0,1,1.29,4.14l-3,5.49-2-1.12,2.63-4.82c.32-.58.82-1.58-.51-2.31a1.86,1.86,0,0,0-2.65.93l-2.49,4.56L97.4,18Z"/><path class="cls-2" d="M111.27,15.65,113.19,17,108,24.36,106.11,23Zm2-2.9,1.91,1.34L114,15.89,112,14.55Z"/><path class="cls-2" d="M111.58,27.13l-1.82-1.46,7.64-9.45,1.81,1.47Z"/><path class="cls-2" d="M114.92,30.14l-1.71-1.59,8.27-8.9,1.71,1.59Z"/><path class="cls-2" d="M120.34,30.26a2,2,0,0,0-.22,3,1.55,1.55,0,0,0,1.79.46l1.59,1.82c-.75.66-3,1-4.9-1.13-1.58-1.81-1.83-4.16.82-6.47,1.85-1.62,4.34-2.13,6.32.14s1.16,4.64-1.33,6.82Zm3.64,1.8a1.84,1.84,0,1,0-2.41-2.76Z"/><path class="cls-2" d="M129.64,33.35l1.26,1.84-1.25.86,0,0a2.62,2.62,0,0,1,2.87,1,3.07,3.07,0,0,1,.23.39l-2,1.36a3.89,3.89,0,0,0-.35-.58,1.91,1.91,0,0,0-3-.58l-3.89,2.66-1.32-1.92Z"/><path class="cls-2" d="M54,125.31a8.45,8.45,0,0,1,1.25.62A5.19,5.19,0,0,1,56.46,127a3.36,3.36,0,0,1,.68,1.55,4.1,4.1,0,0,1-.29,2.07l-2.2-.86a1.62,1.62,0,0,0-.13-1.57,3.2,3.2,0,0,0-1.43-1,5.29,5.29,0,0,0-.71-.2,1.94,1.94,0,0,0-.72,0,1.34,1.34,0,0,0-.6.26,1.1,1.1,0,0,0-.46.58,1,1,0,0,0,.09,1,2.16,2.16,0,0,0,.66.59l2.41,1.72a6.28,6.28,0,0,1,.83.63,3.72,3.72,0,0,1,.73.88,2.57,2.57,0,0,1,.38,1.17,3.94,3.94,0,0,1-.28,1.56,4.35,4.35,0,0,1-.73,1.22,3.07,3.07,0,0,1-1.23.84,5.27,5.27,0,0,1-4-.24,5.68,5.68,0,0,1-2.75-2.09,3.49,3.49,0,0,1-.24-3.41l2.2.85a1.64,1.64,0,0,0,.2,1.7,3.48,3.48,0,0,0,1.47,1,3.8,3.8,0,0,0,1.61.28,1.43,1.43,0,0,0,.74-.22,1.28,1.28,0,0,0,.47-.63,1.26,1.26,0,0,0,.09-.64,1.12,1.12,0,0,0-.29-.53,5.55,5.55,0,0,0-1.24-1l-1.07-.74-.55-.43c-.2-.13-.39-.27-.58-.42s-.33-.31-.48-.47a5,5,0,0,1-.42-.5,2.55,2.55,0,0,1-.42-1.23,3,3,0,0,1,.25-1.6A3.29,3.29,0,0,1,50.8,125,5.73,5.73,0,0,1,54,125.31Z"/><path class="cls-2" d="M63.57,134.8a2,2,0,0,0-.25-1.17,1.46,1.46,0,0,0-1-.55,1.39,1.39,0,0,0-.94.1,1.73,1.73,0,0,0-.65.56,4.89,4.89,0,0,0-.64,1.74,6.47,6.47,0,0,0-.11.91,4.05,4.05,0,0,0,0,.93,1.55,1.55,0,0,0,.4.77,1.47,1.47,0,0,0,.85.44,1.29,1.29,0,0,0,.71-.05,1.77,1.77,0,0,0,.56-.3,1.79,1.79,0,0,0,.54-.91l2.32.44a4,4,0,0,1-.33.88,4.4,4.4,0,0,1-.84,1,4,4,0,0,1-1.37.78,4.08,4.08,0,0,1-2,.07q-4-.81-3.14-5.46t4.92-3.91a6.79,6.79,0,0,1,1.23.36,4,4,0,0,1,1.09.8,3,3,0,0,1,.74,1.21,4.25,4.25,0,0,1,.13,1.75Z"/><path class="cls-2" d="M67.89,129.12l2.26,0-.1,4.28h0a2.41,2.41,0,0,1,1-1,3.43,3.43,0,0,1,3.74.42,2.92,2.92,0,0,1,.82,2.28l-.15,6.26-2.26-.05.13-5.49c0-.18,0-.37,0-.57a1.63,1.63,0,0,0-.16-.59,1,1,0,0,0-.43-.46,1.81,1.81,0,0,0-.87-.19,1.76,1.76,0,0,0-1.29.48,2.23,2.23,0,0,0-.57,1.56l-.12,5.18-2.26-.05Z"/><path class="cls-2" d="M78.08,136.86a4.89,4.89,0,0,1,.64-3.58,4.25,4.25,0,0,1,3-1.83,4.19,4.19,0,0,1,3.46.81A5.61,5.61,0,0,1,86.27,139a4.65,4.65,0,0,1-6.48,1A4.89,4.89,0,0,1,78.08,136.86Zm2.33-.37a3.75,3.75,0,0,0,.76,1.8,1.72,1.72,0,0,0,1.74.61,2,2,0,0,0,1-.39,2,2,0,0,0,.53-.71,2.82,2.82,0,0,0,.21-1,7.1,7.1,0,0,0-.08-1,4.24,4.24,0,0,0-.72-1.83,1.88,1.88,0,0,0-.73-.52,2,2,0,0,0-1.06-.06,1.75,1.75,0,0,0-1.47,1.11A3.82,3.82,0,0,0,80.41,136.49Z"/><path class="cls-2" d="M88.8,135a4.89,4.89,0,0,1,0-3.63A4.69,4.69,0,0,1,95,129.21a5.61,5.61,0,0,1,2.27,6.47,4.67,4.67,0,0,1-6.19,2.17A4.88,4.88,0,0,1,88.8,135Zm2.23-.78a3.74,3.74,0,0,0,1.08,1.63,1.72,1.72,0,0,0,1.82.29,2.12,2.12,0,0,0,.9-.57,2,2,0,0,0,.4-.8,2.78,2.78,0,0,0,0-1,5.27,5.27,0,0,0-.26-1,4.27,4.27,0,0,0-1-1.68,2.28,2.28,0,0,0-.82-.38,2.25,2.25,0,0,0-1,.14,1.71,1.71,0,0,0-1.24,1.35A3.71,3.71,0,0,0,91,134.24Z"/><path class="cls-2" d="M103.4,133.92l-2,1-5.5-10.82,2-1Z"/><path class="cls-1" d="M106.18,39.58V91.8s-9.49,17.77-34,23.28h0C47.75,109.57,38.44,91.8,38.44,91.8V39.6Z"/><line class="cls-1" x1="72.17" y1="39.64" x2="72.23" y2="115.27"/><path class="cls-1" d="M88.33,66.91s.3,1.44,1.54,1.44A1.76,1.76,0,0,0,91.45,67l11-2.74,0-15.57v-.06L89.73,51.56,77.26,48.72V64.5l11,2.61a1.71,1.71,0,0,0,1.58,1.24c1.24,0,1.54-1.37,1.54-1.37"/><path class="cls-3" d="M101.45,47.39c-3.06-.32-5.86-.31-11.39,2.81h-.24c-5.14-2.9-8.8-3.07-11.73-2.77h.2l.16,15.74h0A20.08,20.08,0,0,1,90,67l-.08-16.69,0,0L90,67a19.15,19.15,0,0,1,11.35-3.8"/><line class="cls-3" x1="101.39" y1="47.3" x2="101.39" y2="63.28"/><polygon class="cls-3" points="92.05 48.66 92.25 61.8 93.71 59.92 95.41 61.35 95.11 47.42 92.05 48.66"/><path class="cls-2" d="M54.15,49.16H45v6.07h8.16v1.38H45v8.06H43.38V47.78H54.15Z"/><path class="cls-2" d="M66.36,52.65c-.14-2.57-1.94-3.85-4.7-3.85S57.44,50,57.44,52c0,2.21,1.88,2.61,4.56,3.2,3.72.81,6.45,1.52,6.45,4.89,0,3.65-3.23,5-6.36,5-4.2,0-6.74-2.19-6.74-5.79V59.1H56.9c0,3.13,2.08,4.62,5.31,4.62,2.92,0,4.7-1.3,4.7-3.48s-1.78-2.8-5.72-3.73c-2.59-.59-5.29-1.18-5.29-4.43,0-2.85,2.25-4.63,5.88-4.63s6,1.71,6.15,5.2Z"/><path class="cls-2" d="M93.25,85.43c-.14-2.56-2-3.84-4.7-3.84s-4.22,1.16-4.22,3.18c0,2.21,1.87,2.61,4.55,3.2,3.73.81,6.46,1.52,6.46,4.89,0,3.65-3.23,5-6.36,5-4.2,0-6.74-2.19-6.74-5.79v-.14h1.54c0,3.13,2.09,4.62,5.32,4.62,2.92,0,4.69-1.3,4.69-3.49S92,90.23,88.08,89.3c-2.59-.59-5.29-1.19-5.29-4.43,0-2.85,2.25-4.63,5.88-4.63s6,1.71,6.14,5.19Z"/><path class="cls-1" d="M38.51,72.82h67.93"/><path class="cls-1" d="M52.43,89.24a1.88,1.88,0,1,1-1.88-1.81A1.84,1.84,0,0,1,52.43,89.24Z"/><ellipse class="cls-1" cx="50.56" cy="89.21" rx="1.03" ry="0.99"/><path class="cls-1" d="M61.57,89.31a1.88,1.88,0,1,1-1.88-1.8A1.84,1.84,0,0,1,61.57,89.31Z"/><path class="cls-1" d="M60.72,89.28a1,1,0,1,1-1-1A1,1,0,0,1,60.72,89.28Z"/><path class="cls-1" d="M63.64,112.69c0-8.11,0-24.11,0-32.29h0l0,10.6s-3,6.88-8.32,10.13h0C50.15,97.88,47,91,47,91l-.06-6.43,5.93.05,1.72,5.29.76,2.19,2.37-7.46,5.93,0V80.3s0-3.47,0-3.51l-3.46,3.56-.23,0c-3.75,0-5.09,0-8.84,0h-.7l-3.47-3.57s0,3.57,0,3.57h0v21.24"/><line class="cls-1" x1="63.93" y1="91.62" x2="72.68" y2="91.62"/><line class="cls-1" x1="63.78" y1="95.33" x2="72.08" y2="95.33"/><line class="cls-1" x1="63.78" y1="99.03" x2="72.08" y2="99.03"/><path class="cls-1" d="M72.23,102.27s-.44,6.63-14.48,7.77"/></g></g></svg>